<mxfile host="app.diagrams.net" agent="Mozilla/5.0 (Windows NT 10.0; Win64; x64) AppleWebKit/537.36 (KHTML, like Gecko) Chrome/122.0.0.0 Safari/537.36" version="28.2.5">
  <diagram name="1 oldal" id="NsHWip-_cEwCeFuyMRKy">
    <mxGraphModel dx="1426" dy="751" grid="1" gridSize="10" guides="1" tooltips="1" connect="1" arrows="1" fold="1" page="1" pageScale="1" pageWidth="1600" pageHeight="900" background="none" math="0" shadow="0">
      <root>
        <mxCell id="0" />
        <mxCell id="1" parent="0" />
        <mxCell id="2GyDd7Py2ag0FtXDw8l8-1" value="Felhasználó" style="shape=umlActor;verticalLabelPosition=bottom;verticalAlign=bottom;outlineConnect=0;fontSize=18;fontFamily=Roboto;fontSource=https%3A%2F%2Ffonts.googleapis.com%2Fcss%3Ffamily%3DRoboto;html=1;align=center;rounded=0;" vertex="1" parent="1">
          <mxGeometry x="120" y="420" width="30" height="60" as="geometry" />
        </mxCell>
        <mxCell id="2GyDd7Py2ag0FtXDw8l8-2" value="" style="rounded=0;whiteSpace=wrap;html=1;" vertex="1" parent="1">
          <mxGeometry x="340" y="130" width="860" height="730" as="geometry" />
        </mxCell>
        <mxCell id="2GyDd7Py2ag0FtXDw8l8-3" value="Pulóver webshop" style="text;html=1;align=center;verticalAlign=middle;whiteSpace=wrap;rounded=0;fontFamily=Roboto;fontSource=https%3A%2F%2Ffonts.googleapis.com%2Fcss%3Ffamily%3DRoboto;fontSize=18;" vertex="1" parent="1">
          <mxGeometry x="665" y="140" width="210" height="30" as="geometry" />
        </mxCell>
        <mxCell id="2GyDd7Py2ag0FtXDw8l8-4" value="" style="ellipse;whiteSpace=wrap;html=1;rounded=0;" vertex="1" parent="1">
          <mxGeometry x="420" y="210" width="280" height="80" as="geometry" />
        </mxCell>
        <mxCell id="2GyDd7Py2ag0FtXDw8l8-5" value="Weboldal megtekintése mobilon és PC-n" style="text;html=1;align=center;verticalAlign=middle;whiteSpace=wrap;rounded=0;fontFamily=Roboto;fontSource=https%3A%2F%2Ffonts.googleapis.com%2Fcss%3Ffamily%3DRoboto;fontSize=18;" vertex="1" parent="1">
          <mxGeometry x="465" y="235" width="190" height="30" as="geometry" />
        </mxCell>
        <mxCell id="2GyDd7Py2ag0FtXDw8l8-8" value="Weboldal kódja" style="shape=umlActor;verticalLabelPosition=bottom;verticalAlign=top;html=1;outlineConnect=0;fontFamily=Roboto;fontSource=https%3A%2F%2Ffonts.googleapis.com%2Fcss%3Ffamily%3DRoboto;fontSize=18;rounded=0;" vertex="1" parent="1">
          <mxGeometry x="1300" y="200" width="30" height="60" as="geometry" />
        </mxCell>
        <mxCell id="2GyDd7Py2ag0FtXDw8l8-11" value="" style="endArrow=none;html=1;rounded=0;entryX=0;entryY=0.5;entryDx=0;entryDy=0;" edge="1" parent="1" target="2GyDd7Py2ag0FtXDw8l8-4">
          <mxGeometry width="50" height="50" relative="1" as="geometry">
            <mxPoint x="170" y="450" as="sourcePoint" />
            <mxPoint x="220" y="400" as="targetPoint" />
          </mxGeometry>
        </mxCell>
        <mxCell id="2GyDd7Py2ag0FtXDw8l8-12" value="" style="endArrow=none;html=1;rounded=0;exitX=1;exitY=0.5;exitDx=0;exitDy=0;" edge="1" parent="1" source="2GyDd7Py2ag0FtXDw8l8-4">
          <mxGeometry width="50" height="50" relative="1" as="geometry">
            <mxPoint x="1230" y="285" as="sourcePoint" />
            <mxPoint x="1270" y="240" as="targetPoint" />
          </mxGeometry>
        </mxCell>
        <mxCell id="2GyDd7Py2ag0FtXDw8l8-14" value="" style="ellipse;whiteSpace=wrap;html=1;rounded=0;" vertex="1" parent="1">
          <mxGeometry x="575" y="350" width="240" height="80" as="geometry" />
        </mxCell>
        <mxCell id="2GyDd7Py2ag0FtXDw8l8-15" value="Keresések szűrése" style="text;html=1;align=center;verticalAlign=middle;whiteSpace=wrap;rounded=0;fontSize=18;fontFamily=Roboto;fontSource=https%3A%2F%2Ffonts.googleapis.com%2Fcss%3Ffamily%3DRoboto;" vertex="1" parent="1">
          <mxGeometry x="610" y="375" width="170" height="30" as="geometry" />
        </mxCell>
        <mxCell id="2GyDd7Py2ag0FtXDw8l8-16" value="Szolgáltatás" style="shape=umlActor;verticalLabelPosition=bottom;verticalAlign=top;html=1;outlineConnect=0;fontSize=18;fontFamily=Roboto;fontSource=https%3A%2F%2Ffonts.googleapis.com%2Fcss%3Ffamily%3DRoboto;rounded=0;" vertex="1" parent="1">
          <mxGeometry x="1310" y="360" width="30" height="60" as="geometry" />
        </mxCell>
        <mxCell id="2GyDd7Py2ag0FtXDw8l8-18" value="" style="endArrow=none;html=1;rounded=0;entryX=0;entryY=0.5;entryDx=0;entryDy=0;" edge="1" parent="1" target="2GyDd7Py2ag0FtXDw8l8-14">
          <mxGeometry width="50" height="50" relative="1" as="geometry">
            <mxPoint x="170" y="450" as="sourcePoint" />
            <mxPoint x="220" y="400" as="targetPoint" />
          </mxGeometry>
        </mxCell>
        <mxCell id="2GyDd7Py2ag0FtXDw8l8-19" value="" style="endArrow=none;html=1;rounded=0;" edge="1" parent="1">
          <mxGeometry width="50" height="50" relative="1" as="geometry">
            <mxPoint x="815" y="390" as="sourcePoint" />
            <mxPoint x="1290" y="400" as="targetPoint" />
          </mxGeometry>
        </mxCell>
        <mxCell id="2GyDd7Py2ag0FtXDw8l8-20" value="" style="ellipse;whiteSpace=wrap;html=1;rounded=0;" vertex="1" parent="1">
          <mxGeometry x="630" y="570" width="210" height="80" as="geometry" />
        </mxCell>
        <mxCell id="2GyDd7Py2ag0FtXDw8l8-21" value="Hírlevelek" style="text;html=1;align=center;verticalAlign=middle;whiteSpace=wrap;rounded=0;fontSize=18;fontFamily=Roboto;fontSource=https%3A%2F%2Ffonts.googleapis.com%2Fcss%3Ffamily%3DRoboto;" vertex="1" parent="1">
          <mxGeometry x="700" y="595" width="60" height="30" as="geometry" />
        </mxCell>
        <mxCell id="2GyDd7Py2ag0FtXDw8l8-22" value="" style="ellipse;whiteSpace=wrap;html=1;rounded=0;" vertex="1" parent="1">
          <mxGeometry x="890" y="480" width="230" height="80" as="geometry" />
        </mxCell>
        <mxCell id="2GyDd7Py2ag0FtXDw8l8-23" value="" style="ellipse;whiteSpace=wrap;html=1;rounded=0;" vertex="1" parent="1">
          <mxGeometry x="890" y="670" width="230" height="80" as="geometry" />
        </mxCell>
        <mxCell id="2GyDd7Py2ag0FtXDw8l8-24" value="Kuponok" style="text;html=1;align=center;verticalAlign=middle;whiteSpace=wrap;rounded=0;fontSize=18;fontFamily=Roboto;fontSource=https%3A%2F%2Ffonts.googleapis.com%2Fcss%3Ffamily%3DRoboto;" vertex="1" parent="1">
          <mxGeometry x="970" y="505" width="60" height="30" as="geometry" />
        </mxCell>
        <mxCell id="2GyDd7Py2ag0FtXDw8l8-25" value="Akciók" style="text;html=1;align=center;verticalAlign=middle;whiteSpace=wrap;rounded=0;fontSize=18;fontFamily=Roboto;fontSource=https%3A%2F%2Ffonts.googleapis.com%2Fcss%3Ffamily%3DRoboto;" vertex="1" parent="1">
          <mxGeometry x="970" y="695" width="60" height="30" as="geometry" />
        </mxCell>
        <mxCell id="2GyDd7Py2ag0FtXDw8l8-26" value="" style="ellipse;whiteSpace=wrap;html=1;rounded=0;" vertex="1" parent="1">
          <mxGeometry x="365" y="625" width="210" height="80" as="geometry" />
        </mxCell>
        <mxCell id="2GyDd7Py2ag0FtXDw8l8-27" value="Regisztráció" style="text;html=1;align=center;verticalAlign=middle;whiteSpace=wrap;rounded=0;fontFamily=Roboto;fontSource=https%3A%2F%2Ffonts.googleapis.com%2Fcss%3Ffamily%3DRoboto;fontSize=18;" vertex="1" parent="1">
          <mxGeometry x="440" y="650" width="60" height="30" as="geometry" />
        </mxCell>
        <mxCell id="2GyDd7Py2ag0FtXDw8l8-28" value="" style="endArrow=none;html=1;rounded=0;entryX=0;entryY=0.5;entryDx=0;entryDy=0;" edge="1" parent="1" target="2GyDd7Py2ag0FtXDw8l8-26">
          <mxGeometry width="50" height="50" relative="1" as="geometry">
            <mxPoint x="170" y="450" as="sourcePoint" />
            <mxPoint x="240" y="630" as="targetPoint" />
          </mxGeometry>
        </mxCell>
        <mxCell id="2GyDd7Py2ag0FtXDw8l8-29" value="" style="endArrow=none;html=1;rounded=0;exitX=1;exitY=0.5;exitDx=0;exitDy=0;entryX=0;entryY=0.5;entryDx=0;entryDy=0;" edge="1" parent="1" source="2GyDd7Py2ag0FtXDw8l8-26" target="2GyDd7Py2ag0FtXDw8l8-20">
          <mxGeometry width="50" height="50" relative="1" as="geometry">
            <mxPoint x="180" y="740" as="sourcePoint" />
            <mxPoint x="230" y="690" as="targetPoint" />
          </mxGeometry>
        </mxCell>
        <mxCell id="2GyDd7Py2ag0FtXDw8l8-30" value="" style="endArrow=none;html=1;rounded=0;exitX=1;exitY=0.5;exitDx=0;exitDy=0;entryX=0;entryY=0.5;entryDx=0;entryDy=0;" edge="1" parent="1" source="2GyDd7Py2ag0FtXDw8l8-20" target="2GyDd7Py2ag0FtXDw8l8-22">
          <mxGeometry width="50" height="50" relative="1" as="geometry">
            <mxPoint x="170" y="750" as="sourcePoint" />
            <mxPoint x="220" y="700" as="targetPoint" />
          </mxGeometry>
        </mxCell>
        <mxCell id="2GyDd7Py2ag0FtXDw8l8-31" value="" style="endArrow=none;html=1;rounded=0;entryX=0;entryY=0.5;entryDx=0;entryDy=0;" edge="1" parent="1" target="2GyDd7Py2ag0FtXDw8l8-23">
          <mxGeometry width="50" height="50" relative="1" as="geometry">
            <mxPoint x="840" y="610" as="sourcePoint" />
            <mxPoint x="200" y="690" as="targetPoint" />
          </mxGeometry>
        </mxCell>
        <mxCell id="2GyDd7Py2ag0FtXDw8l8-33" value="" style="ellipse;whiteSpace=wrap;html=1;rounded=0;" vertex="1" parent="1">
          <mxGeometry x="630" y="760" width="210" height="80" as="geometry" />
        </mxCell>
        <mxCell id="2GyDd7Py2ag0FtXDw8l8-34" value="ÁSZF és adatkezelési tájékoztatás megnézése" style="text;html=1;align=center;verticalAlign=middle;whiteSpace=wrap;rounded=0;fontSize=18;fontFamily=Roboto;fontSource=https%3A%2F%2Ffonts.googleapis.com%2Fcss%3Ffamily%3DRoboto;" vertex="1" parent="1">
          <mxGeometry x="632.5" y="785" width="205" height="30" as="geometry" />
        </mxCell>
        <mxCell id="2GyDd7Py2ag0FtXDw8l8-35" value="" style="endArrow=none;html=1;rounded=0;exitX=1;exitY=0.5;exitDx=0;exitDy=0;entryX=0;entryY=0.5;entryDx=0;entryDy=0;" edge="1" parent="1" source="2GyDd7Py2ag0FtXDw8l8-26" target="2GyDd7Py2ag0FtXDw8l8-34">
          <mxGeometry width="50" height="50" relative="1" as="geometry">
            <mxPoint x="200" y="760" as="sourcePoint" />
            <mxPoint x="250" y="710" as="targetPoint" />
          </mxGeometry>
        </mxCell>
        <mxCell id="2GyDd7Py2ag0FtXDw8l8-36" value="" style="endArrow=none;html=1;rounded=0;exitX=1;exitY=0.5;exitDx=0;exitDy=0;" edge="1" parent="1" source="2GyDd7Py2ag0FtXDw8l8-22">
          <mxGeometry width="50" height="50" relative="1" as="geometry">
            <mxPoint x="210" y="760" as="sourcePoint" />
            <mxPoint x="1290" y="400" as="targetPoint" />
          </mxGeometry>
        </mxCell>
        <mxCell id="2GyDd7Py2ag0FtXDw8l8-37" value="" style="endArrow=none;html=1;rounded=0;exitX=1;exitY=0.5;exitDx=0;exitDy=0;" edge="1" parent="1" source="2GyDd7Py2ag0FtXDw8l8-23">
          <mxGeometry width="50" height="50" relative="1" as="geometry">
            <mxPoint x="200" y="770" as="sourcePoint" />
            <mxPoint x="1290" y="400" as="targetPoint" />
          </mxGeometry>
        </mxCell>
        <mxCell id="2GyDd7Py2ag0FtXDw8l8-38" value="E-mail szolgáltató" style="shape=umlActor;verticalLabelPosition=bottom;verticalAlign=top;html=1;outlineConnect=0;fontSize=18;fontFamily=Roboto;fontSource=https%3A%2F%2Ffonts.googleapis.com%2Fcss%3Ffamily%3DRoboto;rounded=0;" vertex="1" parent="1">
          <mxGeometry x="1310" y="560" width="30" height="60" as="geometry" />
        </mxCell>
        <mxCell id="2GyDd7Py2ag0FtXDw8l8-39" value="" style="endArrow=none;html=1;rounded=0;exitX=1;exitY=0.5;exitDx=0;exitDy=0;" edge="1" parent="1" source="2GyDd7Py2ag0FtXDw8l8-22">
          <mxGeometry width="50" height="50" relative="1" as="geometry">
            <mxPoint x="210" y="780" as="sourcePoint" />
            <mxPoint x="1270" y="590" as="targetPoint" />
          </mxGeometry>
        </mxCell>
        <mxCell id="2GyDd7Py2ag0FtXDw8l8-40" value="" style="endArrow=none;html=1;rounded=0;exitX=1;exitY=0.5;exitDx=0;exitDy=0;" edge="1" parent="1" source="2GyDd7Py2ag0FtXDw8l8-23">
          <mxGeometry width="50" height="50" relative="1" as="geometry">
            <mxPoint x="170" y="750" as="sourcePoint" />
            <mxPoint x="1270" y="590" as="targetPoint" />
          </mxGeometry>
        </mxCell>
        <mxCell id="2GyDd7Py2ag0FtXDw8l8-41" value="" style="endArrow=none;html=1;rounded=0;" edge="1" parent="1">
          <mxGeometry width="50" height="50" relative="1" as="geometry">
            <mxPoint x="840" y="800" as="sourcePoint" />
            <mxPoint x="1270" y="240" as="targetPoint" />
          </mxGeometry>
        </mxCell>
      </root>
    </mxGraphModel>
  </diagram>
</mxfile>
